<svg width="177" height="78" viewBox="0 0 177 78" fill="none" xmlns="http://www.w3.org/2000/svg">
<path d="M1.3922 77.8775L0.948241 1.39442L24.2408 1.25921L30.943 47.8505L37.0604 1.1848L60.5703 1.04833L61.0142 77.5314L47.0213 77.6126L46.7015 22.5101L38.2431 77.6636L24.511 77.7433L14.8915 22.6947L15.2113 77.7973L1.3922 77.8775ZM72.2434 77.4662L71.7994 0.983148L102.393 0.805562L102.478 15.5807L87.4425 15.668L87.529 30.5735L101.957 30.4897L102.04 44.8738L87.6125 44.9575L87.7142 62.4704L103.75 62.3773L103.836 77.2828L72.2434 77.4662ZM112.675 77.2315L112.231 0.748452L127.006 0.662687L127.45 77.1458L112.675 77.2315ZM135.768 77.0975L143.746 36.5051L137.018 0.561111L151.967 0.474337L156.074 26.7424L159.442 0.430949L174.434 0.343922L168.125 36.3636L176.53 76.8609L161.059 76.9507L156.062 47.0807L151.282 77.0074L135.768 77.0975Z" fill="#2B6EAC"/>
</svg>
