<svg width="818" height="466" viewBox="0 0 818 466" fill="none" xmlns="http://www.w3.org/2000/svg">
<path d="M160.824 427.76V450H157.176V434.768L150.392 450H147.864L141.048 434.768V450H137.4V427.76H141.336L149.144 445.2L156.92 427.76H160.824ZM181.491 432.368L170.675 458.288H166.899L170.483 449.712L163.539 432.368H167.603L172.563 445.808L177.715 432.368H181.491ZM208.108 434.384C208.108 435.515 207.842 436.581 207.308 437.584C206.775 438.587 205.922 439.408 204.748 440.048C203.575 440.667 202.071 440.976 200.236 440.976H196.204V450H192.556V427.76H200.236C201.943 427.76 203.383 428.059 204.556 428.656C205.751 429.232 206.636 430.021 207.212 431.024C207.81 432.027 208.108 433.147 208.108 434.384ZM200.236 438C201.623 438 202.658 437.691 203.34 437.072C204.023 436.432 204.364 435.536 204.364 434.384C204.364 431.952 202.988 430.736 200.236 430.736H196.204V438H200.236ZM215.236 434.928C215.769 434.032 216.473 433.339 217.348 432.848C218.244 432.336 219.3 432.08 220.516 432.08V435.856H219.588C218.158 435.856 217.07 436.219 216.324 436.944C215.598 437.669 215.236 438.928 215.236 440.72V450H211.588V432.368H215.236V434.928ZM231.517 450.288C229.853 450.288 228.349 449.915 227.005 449.168C225.661 448.4 224.605 447.333 223.837 445.968C223.069 444.581 222.685 442.981 222.685 441.168C222.685 439.376 223.079 437.787 223.869 436.4C224.658 435.013 225.735 433.947 227.101 433.2C228.466 432.453 229.991 432.08 231.677 432.08C233.362 432.08 234.887 432.453 236.253 433.2C237.618 433.947 238.695 435.013 239.485 436.4C240.274 437.787 240.669 439.376 240.669 441.168C240.669 442.96 240.263 444.549 239.453 445.936C238.642 447.323 237.533 448.4 236.125 449.168C234.738 449.915 233.202 450.288 231.517 450.288ZM231.517 447.12C232.455 447.12 233.33 446.896 234.141 446.448C234.973 446 235.645 445.328 236.157 444.432C236.669 443.536 236.925 442.448 236.925 441.168C236.925 439.888 236.679 438.811 236.189 437.936C235.698 437.04 235.047 436.368 234.237 435.92C233.426 435.472 232.551 435.248 231.613 435.248C230.674 435.248 229.799 435.472 228.989 435.92C228.199 436.368 227.57 437.04 227.101 437.936C226.631 438.811 226.397 439.888 226.397 441.168C226.397 443.067 226.877 444.539 227.837 445.584C228.818 446.608 230.045 447.12 231.517 447.12ZM246.131 430.032C245.47 430.032 244.915 429.808 244.467 429.36C244.019 428.912 243.795 428.357 243.795 427.696C243.795 427.035 244.019 426.48 244.467 426.032C244.915 425.584 245.47 425.36 246.131 425.36C246.771 425.36 247.315 425.584 247.763 426.032C248.211 426.48 248.435 427.035 248.435 427.696C248.435 428.357 248.211 428.912 247.763 429.36C247.315 429.808 246.771 430.032 246.131 430.032ZM247.923 453.456C247.923 455.184 247.486 456.432 246.611 457.2C245.758 457.989 244.51 458.384 242.867 458.384H240.979V455.312H242.227C242.974 455.312 243.496 455.163 243.795 454.864C244.115 454.587 244.275 454.117 244.275 453.456V432.368H247.923V453.456ZM268.873 440.752C268.873 441.413 268.83 442.011 268.745 442.544H255.273C255.379 443.952 255.902 445.083 256.841 445.936C257.779 446.789 258.931 447.216 260.297 447.216C262.259 447.216 263.646 446.395 264.457 444.752H268.392C267.859 446.373 266.889 447.707 265.481 448.752C264.094 449.776 262.366 450.288 260.297 450.288C258.611 450.288 257.097 449.915 255.753 449.168C254.43 448.4 253.385 447.333 252.617 445.968C251.87 444.581 251.497 442.981 251.497 441.168C251.497 439.355 251.859 437.765 252.585 436.4C253.331 435.013 254.366 433.947 255.689 433.2C257.033 432.453 258.569 432.08 260.297 432.08C261.961 432.08 263.443 432.443 264.745 433.168C266.046 433.893 267.059 434.917 267.785 436.24C268.51 437.541 268.873 439.045 268.873 440.752ZM265.065 439.6C265.043 438.256 264.563 437.179 263.625 436.368C262.686 435.557 261.523 435.152 260.137 435.152C258.878 435.152 257.801 435.557 256.905 436.368C256.009 437.157 255.475 438.235 255.305 439.6H265.065ZM271.247 441.168C271.247 439.355 271.609 437.765 272.335 436.4C273.081 435.013 274.105 433.947 275.407 433.2C276.708 432.453 278.201 432.08 279.887 432.08C282.02 432.08 283.78 432.592 285.167 433.616C286.575 434.619 287.524 436.059 288.015 437.936H284.079C283.759 437.061 283.247 436.379 282.543 435.888C281.839 435.397 280.953 435.152 279.887 435.152C278.393 435.152 277.199 435.685 276.303 436.752C275.428 437.797 274.991 439.269 274.991 441.168C274.991 443.067 275.428 444.549 276.303 445.616C277.199 446.683 278.393 447.216 279.887 447.216C281.999 447.216 283.396 446.288 284.079 444.432H288.015C287.503 446.224 286.543 447.653 285.135 448.72C283.727 449.765 281.977 450.288 279.887 450.288C278.201 450.288 276.708 449.915 275.407 449.168C274.105 448.4 273.081 447.333 272.335 445.968C271.609 444.581 271.247 442.981 271.247 441.168ZM295.906 435.344V445.104C295.906 445.765 296.055 446.245 296.354 446.544C296.674 446.821 297.207 446.96 297.954 446.96H300.194V450H297.314C295.671 450 294.413 449.616 293.538 448.848C292.663 448.08 292.226 446.832 292.226 445.104V435.344H290.146V432.368H292.226V427.984H295.906V432.368H300.194V435.344H295.906ZM309.956 450.288C308.57 450.288 307.322 450.043 306.212 449.552C305.124 449.04 304.26 448.357 303.62 447.504C302.98 446.629 302.639 445.659 302.596 444.592H306.372C306.436 445.339 306.788 445.968 307.428 446.48C308.09 446.971 308.911 447.216 309.892 447.216C310.916 447.216 311.706 447.024 312.26 446.64C312.836 446.235 313.124 445.723 313.124 445.104C313.124 444.443 312.804 443.952 312.164 443.632C311.546 443.312 310.554 442.96 309.188 442.576C307.866 442.213 306.788 441.861 305.956 441.52C305.124 441.179 304.399 440.656 303.78 439.952C303.183 439.248 302.884 438.32 302.884 437.168C302.884 436.229 303.162 435.376 303.716 434.608C304.271 433.819 305.06 433.2 306.084 432.752C307.13 432.304 308.324 432.08 309.668 432.08C311.674 432.08 313.284 432.592 314.5 433.616C315.738 434.619 316.399 435.995 316.484 437.744H312.836C312.772 436.955 312.452 436.325 311.876 435.856C311.3 435.387 310.522 435.152 309.54 435.152C308.58 435.152 307.844 435.333 307.332 435.696C306.82 436.059 306.564 436.539 306.564 437.136C306.564 437.605 306.735 438 307.076 438.32C307.418 438.64 307.834 438.896 308.324 439.088C308.815 439.259 309.54 439.483 310.5 439.76C311.78 440.101 312.826 440.453 313.636 440.816C314.468 441.157 315.183 441.669 315.78 442.352C316.378 443.035 316.687 443.941 316.708 445.072C316.708 446.075 316.431 446.971 315.876 447.76C315.322 448.549 314.532 449.168 313.508 449.616C312.506 450.064 311.322 450.288 309.956 450.288Z" fill="#272727"/>
<path d="M345.25 0.26412C343.777 0.26412 342.583 1.45803 342.583 2.93079C342.583 4.40355 343.777 5.59745 345.25 5.59745C346.723 5.59745 347.917 4.40355 347.917 2.93079C347.917 1.45803 346.723 0.26412 345.25 0.26412ZM345.25 460.405C343.777 460.405 342.583 461.599 342.583 463.072C342.583 464.545 343.777 465.738 345.25 465.738C346.723 465.738 347.917 464.545 347.917 463.072C347.917 461.599 346.723 460.405 345.25 460.405ZM344.75 2.93079L344.75 463.072H345.75L345.75 2.93079H344.75Z" fill="#8B593C"/>
<line x1="817.5" y1="402.5" x2="0.5" y2="402.5" stroke="#272727" stroke-opacity="0.48" stroke-linecap="round" stroke-dasharray="10 10"/>
</svg>
