<svg width="818" height="335" viewBox="0 0 818 335" fill="none" xmlns="http://www.w3.org/2000/svg">
<path d="M271.808 302.456H262.496L260.896 307H257.088L265.056 284.728H269.28L277.248 307H273.408L271.808 302.456ZM270.784 299.48L267.168 289.144L263.52 299.48H270.784ZM284.361 291.992C284.979 291.139 285.822 290.445 286.889 289.912C287.977 289.357 289.182 289.08 290.505 289.08C292.062 289.08 293.47 289.453 294.729 290.2C295.987 290.947 296.979 292.013 297.705 293.4C298.43 294.765 298.793 296.333 298.793 298.104C298.793 299.875 298.43 301.464 297.705 302.872C296.979 304.259 295.977 305.347 294.697 306.136C293.438 306.904 292.041 307.288 290.505 307.288C289.139 307.288 287.923 307.021 286.857 306.488C285.811 305.955 284.979 305.272 284.361 304.44V307H280.713V283.32H284.361V291.992ZM295.081 298.104C295.081 296.888 294.825 295.843 294.312 294.968C293.822 294.072 293.161 293.4 292.329 292.952C291.518 292.483 290.643 292.248 289.705 292.248C288.787 292.248 287.913 292.483 287.081 292.952C286.27 293.421 285.609 294.104 285.097 295C284.606 295.896 284.361 296.952 284.361 298.168C284.361 299.384 284.606 300.451 285.097 301.368C285.609 302.264 286.27 302.947 287.081 303.416C287.913 303.885 288.787 304.12 289.705 304.12C290.643 304.12 291.518 303.885 292.329 303.416C293.161 302.925 293.822 302.221 294.312 301.304C294.825 300.387 295.081 299.32 295.081 298.104ZM310.048 307.288C308.384 307.288 306.88 306.915 305.536 306.168C304.192 305.4 303.136 304.333 302.368 302.968C301.6 301.581 301.216 299.981 301.216 298.168C301.216 296.376 301.611 294.787 302.4 293.4C303.189 292.013 304.267 290.947 305.632 290.2C306.997 289.453 308.523 289.08 310.208 289.08C311.893 289.08 313.419 289.453 314.784 290.2C316.149 290.947 317.227 292.013 318.016 293.4C318.805 294.787 319.2 296.376 319.2 298.168C319.2 299.96 318.795 301.549 317.984 302.936C317.173 304.323 316.064 305.4 314.656 306.168C313.269 306.915 311.733 307.288 310.048 307.288ZM310.048 304.12C310.987 304.12 311.861 303.896 312.672 303.448C313.504 303 314.176 302.328 314.688 301.432C315.2 300.536 315.456 299.448 315.456 298.168C315.456 296.888 315.211 295.811 314.72 294.936C314.229 294.04 313.579 293.368 312.768 292.92C311.957 292.472 311.083 292.248 310.144 292.248C309.205 292.248 308.331 292.472 307.52 292.92C306.731 293.368 306.101 294.04 305.632 294.936C305.163 295.811 304.928 296.888 304.928 298.168C304.928 300.067 305.408 301.539 306.368 302.584C307.349 303.608 308.576 304.12 310.048 304.12ZM338.774 289.368V307H335.126V304.92C334.55 305.645 333.793 306.221 332.854 306.648C331.937 307.053 330.956 307.256 329.91 307.256C328.524 307.256 327.276 306.968 326.166 306.392C325.078 305.816 324.214 304.963 323.574 303.832C322.956 302.701 322.646 301.336 322.646 299.736V289.368H326.262V299.192C326.262 300.771 326.657 301.987 327.446 302.84C328.236 303.672 329.313 304.088 330.678 304.088C332.044 304.088 333.121 303.672 333.91 302.84C334.721 301.987 335.126 300.771 335.126 299.192V289.368H338.774ZM347.844 292.344V302.104C347.844 302.765 347.993 303.245 348.292 303.544C348.612 303.821 349.145 303.96 349.892 303.96H352.132V307H349.252C347.609 307 346.35 306.616 345.476 305.848C344.601 305.08 344.164 303.832 344.164 302.104V292.344H342.084V289.368H344.164V284.984H347.844V289.368H352.132V292.344H347.844ZM387.23 284.76V307H383.582V291.768L376.798 307H374.27L367.454 291.768V307H363.806V284.76H367.742L375.55 302.2L383.326 284.76H387.23ZM408.185 297.752C408.185 298.413 408.142 299.011 408.057 299.544H394.585C394.692 300.952 395.214 302.083 396.153 302.936C397.092 303.789 398.244 304.216 399.609 304.216C401.572 304.216 402.958 303.395 403.769 301.752H407.705C407.172 303.373 406.201 304.707 404.793 305.752C403.406 306.776 401.678 307.288 399.609 307.288C397.924 307.288 396.409 306.915 395.065 306.168C393.742 305.4 392.697 304.333 391.929 302.968C391.182 301.581 390.809 299.981 390.809 298.168C390.809 296.355 391.172 294.765 391.897 293.4C392.644 292.013 393.678 290.947 395.001 290.2C396.345 289.453 397.881 289.08 399.609 289.08C401.273 289.08 402.756 289.443 404.057 290.168C405.358 290.893 406.372 291.917 407.097 293.24C407.822 294.541 408.185 296.045 408.185 297.752ZM404.377 296.6C404.356 295.256 403.876 294.179 402.937 293.368C401.998 292.557 400.836 292.152 399.449 292.152C398.19 292.152 397.113 292.557 396.217 293.368C395.321 294.157 394.788 295.235 394.617 296.6H404.377Z" fill="#272727"/>
<path d="M216.496 0.333336C215.023 0.335471 213.831 1.53111 213.833 3.00386C213.835 4.47662 215.031 5.6688 216.504 5.66666C217.977 5.66453 219.169 4.46889 219.167 2.99614C219.165 1.52338 217.969 0.331202 216.496 0.333336ZM216.973 329.333C215.5 329.336 214.308 330.531 214.31 332.004C214.312 333.477 215.508 334.669 216.981 334.667C218.453 334.665 219.646 333.469 219.643 331.996C219.641 330.523 218.446 329.331 216.973 329.333ZM216 3.00072L216.477 332.001L217.477 331.999L217 2.99928L216 3.00072Z" fill="#272727"/>
<line x1="817.5" y1="249.5" x2="0.5" y2="249.5" stroke="#8B593C" stroke-linecap="round" stroke-dasharray="10 10"/>
</svg>
