<svg width="132" height="167" viewBox="0 0 132 167" fill="none" xmlns="http://www.w3.org/2000/svg">
<path d="M1.02468 2.44889C32.1911 -1.64808 31.9113 10.9081 57.0001 47C70.3965 66.2715 109.872 89.9929 90.7984 102.727C77.8081 111.4 54.1155 113.666 45.4458 90.3126C35.8721 64.5235 76.9051 86.8223 81.0549 90.4569C100.479 107.469 113.435 129.097 126.309 156.791C131.131 167.164 131.261 159.792 129.856 151.647C128.638 144.58 127.134 136.582 124.776 130.176C124.057 128.223 127.001 141.891 127.532 144.017C129.805 153.133 132.205 163.78 124.138 165.286C122.842 165.528 110.611 166.135 110.004 163.332C109.688 161.874 116.791 154.531 117.609 153.168C122.919 144.312 124.289 137.149 122.618 125.165" stroke="#373536" stroke-width="2" stroke-linecap="round"/>
</svg>
