<svg width="121" height="113" viewBox="0 0 121 113" fill="none" xmlns="http://www.w3.org/2000/svg">
<ellipse cx="60.5" cy="56.5" rx="47.5" ry="49.5" fill="#333333"/>
<path d="M113.5 56.5C113.5 86.9271 89.7206 111.5 60.5 111.5C31.2794 111.5 7.5 86.9271 7.5 56.5C7.5 26.0729 31.2794 1.5 60.5 1.5C89.7206 1.5 113.5 26.0729 113.5 56.5Z" stroke="#333333" stroke-width="3"/>
<path d="M23.8848 67.7222L23.7829 48.8162L27.736 48.7915L27.7596 53.185C27.9641 52.5821 28.2804 52.1361 28.7085 51.847C29.1366 51.5507 29.6371 51.4008 30.21 51.3972C31.3272 51.3902 32.1419 51.736 32.6541 52.4346C33.1663 53.1333 33.4256 54.0734 33.432 55.255L33.4988 67.6621L29.6102 67.6864L29.5447 55.5264C29.5429 55.1755 29.4661 54.8895 29.3145 54.6685C29.1701 54.4474 28.9404 54.3378 28.6253 54.3398C28.3603 54.3414 28.1496 54.4573 27.9933 54.6875C27.8442 54.9176 27.7705 55.1902 27.7721 55.5053L27.8378 67.6975L23.8848 67.7222ZM35.9998 50.5445L35.9826 47.3434L39.8282 47.3194L39.8455 50.5205L35.9998 50.5445ZM36.092 67.6458L36.0052 51.5328L39.8508 51.5087L39.9376 67.6218L36.092 67.6458ZM42.5629 67.6054L42.4761 51.4923L46.3862 51.4679L46.3959 53.2618C46.5787 52.6376 46.9055 52.1485 47.3763 51.7947C47.847 51.4408 48.4405 51.2617 49.1566 51.2572L49.1739 54.469C48.8588 54.471 48.483 54.5092 48.0466 54.5835C47.6101 54.6507 47.2274 54.7462 46.8987 54.87C46.5699 54.9866 46.4059 55.1166 46.4066 55.2598L46.473 67.5809L42.5629 67.6054ZM55.8023 67.6944C54.6565 67.7016 53.7422 67.4925 53.0596 67.067C52.3769 66.6416 51.8866 66.0252 51.5887 65.2178C51.2907 64.4104 51.1386 63.4374 51.1325 62.2987L51.0976 55.8213C51.0896 54.3246 51.5131 53.1904 52.3684 52.4187C53.2236 51.6399 54.4031 51.2458 55.907 51.2364C59.0007 51.2171 60.5557 52.7256 60.572 55.762L60.5783 56.9329C60.586 58.3509 60.5768 59.3034 60.5508 59.7906L54.9649 59.8255L54.9817 62.9407C54.9833 63.2271 55.0027 63.5099 55.04 63.789C55.0773 64.0609 55.1573 64.286 55.28 64.4642C55.4098 64.6425 55.6144 64.7307 55.8937 64.729C56.2947 64.7265 56.5445 64.553 56.6429 64.2086C56.7412 63.8571 56.7889 63.402 56.7859 62.8435L56.7776 61.2966L60.6017 61.2727L60.6066 62.1858C60.6131 63.3889 60.4682 64.3996 60.1718 65.2178C59.8825 66.0289 59.3845 66.6443 58.6778 67.0641C57.9782 67.4767 57.0197 67.6868 55.8023 67.6944ZM54.9332 57.9135L56.7593 57.9021L56.7476 55.7322C56.7445 55.1522 56.6706 54.7373 56.5261 54.4875C56.3814 54.2306 56.1659 54.103 55.8795 54.1048C55.5715 54.1067 55.3323 54.23 55.1617 54.4746C54.9983 54.7191 54.9182 55.1421 54.9215 55.7437L54.9332 57.9135ZM69.3878 67.4376L69.301 51.3245L73.0607 51.301L73.0708 53.1701C73.2391 52.5102 73.53 52.0035 73.9434 51.65C74.3569 51.2965 74.9647 51.1172 75.7667 51.1122C76.4113 51.1082 76.9599 51.2551 77.4127 51.5531C77.8726 51.8438 78.197 52.2321 78.3858 52.7179C78.6765 52.1861 79.0181 51.783 79.4105 51.5084C79.8101 51.2266 80.3786 51.0834 81.1162 51.0787C82.0114 51.0731 82.6999 51.2622 83.1818 51.6459C83.6708 52.0224 84.0103 52.5502 84.2001 53.2294C84.3971 53.9014 84.498 54.6813 84.5028 55.5694L84.5662 67.3426L80.7313 67.3666L80.6676 55.5289C80.662 54.4905 80.3942 53.973 79.8643 53.9763C79.585 53.978 79.3706 54.076 79.2213 54.2703C79.0719 54.4575 78.9693 54.6909 78.9135 54.9705C78.8578 55.2502 78.8306 55.5296 78.8321 55.8089L78.8944 67.3781L75.0596 67.4021L74.9958 55.5644C74.994 55.2278 74.9492 54.8915 74.8614 54.5554C74.7809 54.2193 74.5723 54.0523 74.2357 54.0545C73.9492 54.0562 73.7278 54.1615 73.5714 54.3701C73.4149 54.5788 73.3089 54.8373 73.2533 55.1456C73.1976 55.4467 73.1706 55.7441 73.1721 56.0377L73.2334 67.4135L69.3878 67.4376ZM91.6934 67.4699C90.5476 67.4771 89.6333 67.268 88.9507 66.8425C88.268 66.4171 87.7777 65.8007 87.4798 64.9933C87.1818 64.1859 87.0297 63.2129 87.0236 62.0742L86.9887 55.5968C86.9807 54.1001 87.4042 52.9659 88.2595 52.1942C89.1147 51.4154 90.2942 51.0213 91.7981 51.0119C94.8918 50.9926 96.4468 52.5011 96.4631 55.5375L96.4694 56.7084C96.4771 58.1263 96.4679 59.0789 96.4419 59.566L90.856 59.601L90.8728 62.7162C90.8744 63.0026 90.8938 63.2854 90.9311 63.5645C90.9684 63.8364 91.0484 64.0615 91.1711 64.2397C91.3009 64.418 91.5055 64.5062 91.7848 64.5044C92.1858 64.5019 92.4356 64.3285 92.534 63.9841C92.6323 63.6326 92.68 63.1775 92.677 62.6189L92.6687 61.0721L96.4928 61.0482L96.4977 61.9612C96.5042 63.1644 96.3593 64.175 96.0629 64.9933C95.7736 65.8044 95.2756 66.4198 94.5689 66.8396C93.8693 67.2522 92.9108 67.4623 91.6934 67.4699ZM90.8243 57.689L92.6504 57.6776L92.6387 55.5077C92.6356 54.9277 92.5617 54.5127 92.4172 54.263C92.2725 54.0061 92.057 53.8785 91.7706 53.8803C91.4626 53.8822 91.2234 54.0055 91.0528 54.25C90.8894 54.4946 90.8093 54.9176 90.8126 55.5191L90.8243 57.689Z" fill="white"/>
</svg>
