<svg width="222" height="23" viewBox="0 0 222 23" fill="none" xmlns="http://www.w3.org/2000/svg">
<path d="M2.37173 9.60144C1.54331 9.60144 0.871735 10.273 0.871735 11.1014C0.871735 11.9299 1.54331 12.6014 2.37173 12.6014V9.60144ZM221.199 12.1621C221.785 11.5763 221.785 10.6266 221.199 10.0408L211.653 0.494839C211.067 -0.0909477 210.117 -0.0909477 209.532 0.494839C208.946 1.08063 208.946 2.03037 209.532 2.61616L218.017 11.1014L209.532 19.5867C208.946 20.1725 208.946 21.1223 209.532 21.708C210.117 22.2938 211.067 22.2938 211.653 21.708L221.199 12.1621ZM2.37173 11.1014V12.6014H220.138V11.1014V9.60144H2.37173V11.1014Z" fill="white"/>
</svg>
